<?xml version="1.0" encoding="utf-8"?>
<!-- Generator: Adobe Illustrator 18.0.0, SVG Export Plug-In . SVG Version: 6.00 Build 0)  -->
<!DOCTYPE svg PUBLIC "-//W3C//DTD SVG 1.1//EN" "http://www.w3.org/Graphics/SVG/1.1/DTD/svg11.dtd">
<svg version="1.1" id="Layer_1" xmlns="http://www.w3.org/2000/svg" xmlns:xlink="http://www.w3.org/1999/xlink" x="0px" y="0px"
	 viewBox="0 0 512 512" enable-background="new 0 0 512 512" xml:space="preserve">
<g>
	<g>
		<g>
			<g>
				<path d="M67,482.8c-16.6,0-33.2,0-49.7,0c2.5,2.5,5,5,7.5,7.5c0-30.7,0-61.5,0-92.2c0-63.4,0-126.9,0-190.3
					c0-53,0-105.9,0-158.9c0-9.1,0-18.2,0-27.2c-2.5,2.5-5,5-7.5,7.5c16.6,0,33.2,0,49.7,0c-2.5-2.5-5-5-7.5-7.5
					c0,30.7,0,61.5,0,92.2c0,63.4,0,126.9,0,190.3c0,53,0,105.9,0,158.9c0,9.1,0,18.2,0,27.2c0,9.7,15,9.7,15,0
					c0-30.7,0-61.5,0-92.2c0-63.4,0-126.9,0-190.3c0-53,0-105.9,0-158.9c0-9.1,0-18.2,0-27.2c0-4.1-3.4-7.5-7.5-7.5
					c-16.6,0-33.2,0-49.7,0c-4.1,0-7.5,3.4-7.5,7.5c0,30.7,0,61.5,0,92.2c0,63.4,0,126.9,0,190.3c0,53,0,105.9,0,158.9
					c0,9.1,0,18.2,0,27.2c0,4.1,3.4,7.5,7.5,7.5c16.6,0,33.2,0,49.7,0C76.7,497.8,76.7,482.8,67,482.8z"/>
			</g>
		</g>
		<g>
			<g>
				<path d="M494.7,482.8c-16.6,0-33.2,0-49.7,0c2.5,2.5,5,5,7.5,7.5c0-30.7,0-61.5,0-92.2c0-63.4,0-126.9,0-190.3
					c0-53,0-105.9,0-158.9c0-9.1,0-18.2,0-27.2c-2.5,2.5-5,5-7.5,7.5c16.6,0,33.2,0,49.7,0c-2.5-2.5-5-5-7.5-7.5
					c0,30.7,0,61.5,0,92.2c0,63.4,0,126.9,0,190.3c0,53,0,105.9,0,158.9c0,9.1,0,18.2,0,27.2c0,9.7,15,9.7,15,0
					c0-30.7,0-61.5,0-92.2c0-63.4,0-126.9,0-190.3c0-53,0-105.9,0-158.9c0-9.1,0-18.2,0-27.2c0-4.1-3.4-7.5-7.5-7.5
					c-16.6,0-33.2,0-49.7,0c-4.1,0-7.5,3.4-7.5,7.5c0,30.7,0,61.5,0,92.2c0,63.4,0,126.9,0,190.3c0,53,0,105.9,0,158.9
					c0,9.1,0,18.2,0,27.2c0,4.1,3.4,7.5,7.5,7.5c16.6,0,33.2,0,49.7,0C504.4,497.8,504.4,482.8,494.7,482.8z"/>
			</g>
		</g>
		<g>
			<g>
				<path d="M67,497.8c35.9,0,71.7,0,107.6,0c63.6,0,127.2,0,190.8,0c26.5,0,53.1,0,79.6,0c9.7,0,9.7-15,0-15
					c-35.9,0-71.7,0-107.6,0c-63.6,0-127.2,0-190.8,0c-26.5,0-53.1,0-79.6,0C57.3,482.8,57.3,497.8,67,497.8L67,497.8z"/>
			</g>
		</g>
		<g>
			<g>
				<path d="M67,340.3c35.9,0,71.7,0,107.6,0c63.6,0,127.2,0,190.8,0c26.5,0,53.1,0,79.6,0c9.7,0,9.7-15,0-15
					c-35.9,0-71.7,0-107.6,0c-63.6,0-127.2,0-190.8,0c-26.5,0-53.1,0-79.6,0C57.3,325.3,57.3,340.3,67,340.3L67,340.3z"/>
			</g>
		</g>
		<g>
			<g>
				<path d="M67,169c35.9,0,71.7,0,107.6,0c63.6,0,127.2,0,190.8,0c26.5,0,53.1,0,79.6,0c9.7,0,9.7-15,0-15c-35.9,0-71.7,0-107.6,0
					c-63.6,0-127.2,0-190.8,0c-26.5,0-53.1,0-79.6,0C57.3,154,57.3,169,67,169L67,169z"/>
			</g>
		</g>
	</g>
	<g>
		<g>
			<path d="M112.3,154c-15.1,0-30.2,0-45.3,0c2.5,2.5,5,5,7.5,7.5c0-37.4,0-74.8,0-112.2c-2.5,2.5-5,5-7.5,7.5c15.1,0,30.2,0,45.3,0
				c-2.5-2.5-5-5-7.5-7.5c0,37.4,0,74.8,0,112.2c0,9.7,15,9.7,15,0c0-37.4,0-74.8,0-112.2c0-4.1-3.4-7.5-7.5-7.5
				c-15.1,0-30.2,0-45.3,0c-4.1,0-7.5,3.4-7.5,7.5c0,37.4,0,74.8,0,112.2c0,4.1,3.4,7.5,7.5,7.5c15.1,0,30.2,0,45.3,0
				C122,169,122,154,112.3,154z"/>
		</g>
	</g>
	<g>
		<g>
			<path d="M157.6,154c-15.1,0-30.2,0-45.3,0c2.5,2.5,5,5,7.5,7.5c0-37.4,0-74.8,0-112.2c-2.5,2.5-5,5-7.5,7.5c15.1,0,30.2,0,45.3,0
				c-2.5-2.5-5-5-7.5-7.5c0,37.4,0,74.8,0,112.2c0,9.7,15,9.7,15,0c0-37.4,0-74.8,0-112.2c0-4.1-3.4-7.5-7.5-7.5
				c-15.1,0-30.2,0-45.3,0c-4.1,0-7.5,3.4-7.5,7.5c0,37.4,0,74.8,0,112.2c0,4.1,3.4,7.5,7.5,7.5c15.1,0,30.2,0,45.3,0
				C167.3,169,167.3,154,157.6,154z"/>
		</g>
	</g>
	<g>
		<g>
			<path d="M372.7,138.8c0,7.2-5,12.9-11.8,14.8c-2.3,0.6-4.9,0.4-7.3,0.4c-9.8,0-19.7,0-29.5,0c-18.7,0-37.4,0-56.1,0
				c2.5,2.5,5,5,7.5,7.5c0-15.1,0-30.2,0-45.3c-2.5,2.5-5,5-7.5,7.5c18.4,0,36.8,0,55.1,0c10,0,20,0,30.1,0c1.9,0,3.8,0,5.7,0
				C366.8,124,372.5,131.5,372.7,138.8c0.3,9.7,15.3,9.7,15,0c-0.5-17.3-14.1-30.2-31.3-30.2c-9.2,0-18.4,0-27.5,0
				c-20.3,0-40.6,0-60.9,0c-4.1,0-7.5,3.4-7.5,7.5c0,15.1,0,30.2,0,45.3c0,4.1,3.4,7.5,7.5,7.5c20.3,0,40.6,0,60.9,0
				c9.2,0,18.4,0,27.5,0c16.8,0,31.3-12.9,31.3-30.2C387.7,129.2,372.7,129.2,372.7,138.8z"/>
		</g>
	</g>
	<g>
		<g>
			<path d="M372.7,70.9c0,15.1,0,30.2,0,45.3c2.5-2.5,5-5,7.5-7.5c-24.9,0-49.7,0-74.6,0c-10.4,0-22.7,2.2-28.6-8.6
				c-4.8-8.7,1.6-18.9,10.3-21.3c3-0.8,6.7-0.4,9.7-0.4c27.7,0,55.4,0,83.2,0c9.7,0,9.7-15,0-15c-24.9,0-49.7,0-74.6,0
				c-12.7,0-24.2-1-34.8,7.5c-9.2,7.3-12,20.4-9,31.3c3.2,11.7,14.3,20.3,26.2,21.3c5.1,0.5,10.3,0.2,15.4,0.2c10.2,0,20.4,0,30.6,0
				c15.4,0,30.8,0,46.3,0c4.1,0,7.5-3.4,7.5-7.5c0-15.1,0-30.2,0-45.3C387.7,61.2,372.7,61.2,372.7,70.9z"/>
		</g>
	</g>
	<g>
		<g>
			<path d="M399.7,325.3c-15.1,0-30.2,0-45.3,0c2.5,2.5,5,5,7.5,7.5c0-37.4,0-74.8,0-112.2c-2.5,2.5-5,5-7.5,7.5
				c15.1,0,30.2,0,45.3,0c-2.5-2.5-5-5-7.5-7.5c0,37.4,0,74.8,0,112.2c0,9.7,15,9.7,15,0c0-37.4,0-74.8,0-112.2
				c0-4.1-3.4-7.5-7.5-7.5c-15.1,0-30.2,0-45.3,0c-4.1,0-7.5,3.4-7.5,7.5c0,37.4,0,74.8,0,112.2c0,4.1,3.4,7.5,7.5,7.5
				c15.1,0,30.2,0,45.3,0C409.4,340.3,409.4,325.3,399.7,325.3z"/>
		</g>
	</g>
	<g>
		<g>
			<path d="M445,325.3c-15.1,0-30.2,0-45.3,0c2.5,2.5,5,5,7.5,7.5c0-37.4,0-74.8,0-112.2c-2.5,2.5-5,5-7.5,7.5c15.1,0,30.2,0,45.3,0
				c-2.5-2.5-5-5-7.5-7.5c0,37.4,0,74.8,0,112.2c0,9.7,15,9.7,15,0c0-37.4,0-74.8,0-112.2c0-4.1-3.4-7.5-7.5-7.5
				c-15.1,0-30.2,0-45.3,0c-4.1,0-7.5,3.4-7.5,7.5c0,37.4,0,74.8,0,112.2c0,4.1,3.4,7.5,7.5,7.5c15.1,0,30.2,0,45.3,0
				C454.7,340.3,454.7,325.3,445,325.3z"/>
		</g>
	</g>
	<g>
		<g>
			<path d="M309.1,325.3c-15.1,0-30.2,0-45.3,0c2.5,2.5,5,5,7.5,7.5c0-37.4,0-74.8,0-112.2c-2.5,2.5-5,5-7.5,7.5
				c15.1,0,30.2,0,45.3,0c-2.5-2.5-5-5-7.5-7.5c0,37.4,0,74.8,0,112.2c0,9.7,15,9.7,15,0c0-37.4,0-74.8,0-112.2
				c0-4.1-3.4-7.5-7.5-7.5c-15.1,0-30.2,0-45.3,0c-4.1,0-7.5,3.4-7.5,7.5c0,37.4,0,74.8,0,112.2c0,4.1,3.4,7.5,7.5,7.5
				c15.1,0,30.2,0,45.3,0C318.7,340.3,318.7,325.3,309.1,325.3z"/>
		</g>
	</g>
	<g>
		<g>
			<path d="M354.4,325.3c-15.1,0-30.2,0-45.3,0c2.5,2.5,5,5,7.5,7.5c0-37.4,0-74.8,0-112.2c-2.5,2.5-5,5-7.5,7.5
				c15.1,0,30.2,0,45.3,0c-2.5-2.5-5-5-7.5-7.5c0,37.4,0,74.8,0,112.2c0,9.7,15,9.7,15,0c0-37.4,0-74.8,0-112.2
				c0-4.1-3.4-7.5-7.5-7.5c-15.1,0-30.2,0-45.3,0c-4.1,0-7.5,3.4-7.5,7.5c0,37.4,0,74.8,0,112.2c0,4.1,3.4,7.5,7.5,7.5
				c15.1,0,30.2,0,45.3,0C364,340.3,364,325.3,354.4,325.3z"/>
		</g>
	</g>
	<g>
		<g>
			<path d="M157.6,482.8c-15.1,0-30.2,0-45.3,0c2.5,2.5,5,5,7.5,7.5c0-37.4,0-74.8,0-112.2c-2.5,2.5-5,5-7.5,7.5
				c15.1,0,30.2,0,45.3,0c-2.5-2.5-5-5-7.5-7.5c0,37.4,0,74.8,0,112.2c0,9.7,15,9.7,15,0c0-37.4,0-74.8,0-112.2
				c0-4.1-3.4-7.5-7.5-7.5c-15.1,0-30.2,0-45.3,0c-4.1,0-7.5,3.4-7.5,7.5c0,37.4,0,74.8,0,112.2c0,4.1,3.4,7.5,7.5,7.5
				c15.1,0,30.2,0,45.3,0C167.3,497.8,167.3,482.8,157.6,482.8z"/>
		</g>
	</g>
	<g>
		<g>
			<path d="M202.9,482.8c-15.1,0-30.2,0-45.3,0c2.5,2.5,5,5,7.5,7.5c0-37.4,0-74.8,0-112.2c-2.5,2.5-5,5-7.5,7.5
				c15.1,0,30.2,0,45.3,0c-2.5-2.5-5-5-7.5-7.5c0,37.4,0,74.8,0,112.2c0,9.7,15,9.7,15,0c0-37.4,0-74.8,0-112.2
				c0-4.1-3.4-7.5-7.5-7.5c-15.1,0-30.2,0-45.3,0c-4.1,0-7.5,3.4-7.5,7.5c0,37.4,0,74.8,0,112.2c0,4.1,3.4,7.5,7.5,7.5
				c15.1,0,30.2,0,45.3,0C212.6,497.8,212.6,482.8,202.9,482.8z"/>
		</g>
	</g>
	<g>
		<g>
			<path d="M112.3,482.8c-15.1,0-30.2,0-45.3,0c2.5,2.5,5,5,7.5,7.5c0-37.4,0-74.8,0-112.2c-2.5,2.5-5,5-7.5,7.5
				c15.1,0,30.2,0,45.3,0c-2.5-2.5-5-5-7.5-7.5c0,37.4,0,74.8,0,112.2c0,9.7,15,9.7,15,0c0-37.4,0-74.8,0-112.2
				c0-4.1-3.4-7.5-7.5-7.5c-15.1,0-30.2,0-45.3,0c-4.1,0-7.5,3.4-7.5,7.5c0,37.4,0,74.8,0,112.2c0,4.1,3.4,7.5,7.5,7.5
				c15.1,0,30.2,0,45.3,0C122,497.8,122,482.8,112.3,482.8z"/>
		</g>
	</g>
</g>
</svg>
